<?xml version="1.0" standalone="no"?>
<!DOCTYPE svg PUBLIC "-//W3C//DTD SVG 20010904//EN"
 "http://www.w3.org/TR/2001/REC-SVG-20010904/DTD/svg10.dtd">
<svg version="1.0" xmlns="http://www.w3.org/2000/svg"
 width="147.000000pt" height="147.000000pt" viewBox="0 0 147.000000 147.000000"
 preserveAspectRatio="xMidYMid meet">
<metadata>
Created by potrace 1.16, written by Peter Selinger 2001-2019
</metadata>
<g transform="translate(0.000000,147.000000) scale(0.100000,-0.100000)"
fill="#000000" stroke="none">
<path d="M0 735 l0 -735 735 0 735 0 0 735 0 735 -735 0 -735 0 0 -735z m650
107 c0 -292 -6 -324 -67 -386 -51 -50 -103 -68 -193 -64 l-75 3 0 115 0 115
55 3 55 3 -2 234 -2 235 114 0 115 0 0 -258z m440 -97 l0 -355 -114 0 -114 0
-1 112 c-1 62 -4 114 -6 116 -2 2 -33 4 -68 3 -46 0 -66 3 -70 13 -7 18 -7
205 0 223 4 10 22 13 69 11 35 -1 66 1 69 4 4 3 6 56 6 117 l1 111 114 0 114
0 0 -355z"/>
</g>
</svg>
