<?xml version="1.0" standalone="no"?>
<!DOCTYPE svg PUBLIC "-//W3C//DTD SVG 20010904//EN"
 "http://www.w3.org/TR/2001/REC-SVG-20010904/DTD/svg10.dtd">
<svg version="1.0" xmlns="http://www.w3.org/2000/svg"
 width="143.000000pt" height="143.000000pt" viewBox="0 0 143.000000 143.000000"
 preserveAspectRatio="xMidYMid meet">

<g transform="translate(0.000000,143.000000) scale(0.100000,-0.100000)"
fill="#000000" stroke="none">
<path d="M438 859 c2 -117 1 -222 -2 -235 -6 -21 -12 -24 -55 -24 -27 0 -51
-4 -53 -10 -1 -5 -2 -59 0 -120 l3 -110 78 0 c128 0 211 57 240 165 6 24 11
144 11 293 l0 252 -112 0 -113 0 3 -211z"/>
<path d="M880 1068 c0 -2 -2 -55 -3 -118 l-2 -115 -67 0 c-37 -1 -70 -4 -73
-7 -3 -3 -7 -55 -8 -116 l-2 -111 75 -3 75 -3 2 -115 2 -115 110 -3 111 -3 0
356 0 355 -110 0 c-60 0 -110 -1 -110 -2z"/>
</g>
</svg>
